<?xml version="1.0" encoding="utf-8"?>
<!-- Generator: Adobe Illustrator 21.0.2, SVG Export Plug-In . SVG Version: 6.00 Build 0)  -->
<svg version="1.1" id="Layer_1" xmlns="http://www.w3.org/2000/svg" xmlns:xlink="http://www.w3.org/1999/xlink" x="0px" y="0px"
	 viewBox="0 0 1133.9 1133.9" style="enable-background:new 0 0 1133.9 1133.9;" xml:space="preserve">
<style type="text/css">
	.st0{fill:#FFFFFF;}
	.st1{fill:#1D1D1B;}
</style>
<g>
	<path class="st0" d="M354.8,194.4v630h460v-630H354.8z M578.6,612.8c0,2.2-1.8,4-4.1,4c-104.5-2.2-188.5-87.5-188.5-192.5
		s84-190.3,188.5-192.5c2.2,0,4.1,1.8,4.1,4V612.8z M595.4,616.8c-2.2,0-4-1.8-4-4V434.7c0-2.2,1.8-4,4-4h184.2c2.3,0,4.1,1.9,4,4.2
		C778.1,535,696.3,614.8,595.4,616.8z M779.5,418H595.3c-2.2,0-4-1.8-4-4V235.9c0-2.2,1.8-4,4-4c100.9,2.1,182.7,81.9,188.1,181.9
		C783.7,416.1,781.8,418,779.5,418z"/>
</g>
<g>
	<path class="st1" d="M483.5,712.8c-2.3,0.8-6.9,2.2-12.3,2.2c-6.1,0-11.1-1.5-15-5.3c-3.5-3.3-5.6-8.7-5.6-14.9
		c0.1-12,8.3-20.7,21.7-20.7c4.6,0,8.3,1,10,1.8l-1.2,4.2c-2.1-1-4.8-1.7-8.9-1.7c-9.8,0-16.1,6.1-16.1,16.1
		c0,10.2,6.1,16.2,15.5,16.2c3.4,0,5.7-0.5,6.9-1.1v-12h-8.2v-4.2h13.2V712.8z"/>
	<path class="st1" d="M537.6,694.1c0,13.8-8.4,21.1-18.6,21.1c-10.6,0-18-8.2-18-20.4c0-12.7,7.9-21.1,18.6-21.1
		C530.5,673.8,537.6,682.2,537.6,694.1z M506.5,694.8c0,8.6,4.6,16.2,12.8,16.2c8.2,0,12.9-7.6,12.9-16.7c0-8-4.2-16.3-12.8-16.3
		C510.7,678,506.5,686,506.5,694.8z"/>
	<path class="st1" d="M556.2,674.5h5.2v35.8h17.1v4.3h-22.3V674.5z"/>
	<path class="st1" d="M596.2,675c3.2-0.5,6.9-0.8,11-0.8c7.4,0,12.7,1.7,16.2,5c3.6,3.3,5.7,7.9,5.7,14.4c0,6.5-2,11.9-5.8,15.6
		c-3.8,3.8-9.9,5.8-17.7,5.8c-3.7,0-6.8-0.2-9.4-0.5V675z M601.4,710.5c1.3,0.2,3.2,0.3,5.2,0.3c11.1,0,17.1-6.2,17.1-17
		c0.1-9.5-5.3-15.5-16.2-15.5c-2.7,0-4.7,0.2-6.1,0.5V710.5z"/>
	<path class="st1" d="M668.5,695.8h-15.6v14.5h17.4v4.3h-22.6v-40.1h21.7v4.3h-16.5v12.7h15.6V695.8z"/>
	<path class="st1" d="M689,714.6v-40.1h5.7l12.9,20.3c3,4.7,5.3,8.9,7.2,13l0.1-0.1c-0.5-5.4-0.6-10.2-0.6-16.5v-16.8h4.9v40.1h-5.2
		l-12.7-20.4c-2.8-4.5-5.5-9-7.5-13.4l-0.2,0.1c0.3,5.1,0.4,9.9,0.4,16.5v17.1H689z"/>
</g>
<g>
	<path class="st1" d="M501.2,784.7c-1.9,1-5.7,1.9-10.6,1.9c-11.3,0-19.8-7.1-19.8-20.3c0-12.6,8.5-21.1,21-21.1
		c5,0,8.2,1.1,9.5,1.8l-1.2,4.2c-2-1-4.8-1.7-8.1-1.7c-9.4,0-15.7,6-15.7,16.5c0,9.8,5.7,16.1,15.4,16.1c3.2,0,6.4-0.7,8.5-1.7
		L501.2,784.7z"/>
	<path class="st1" d="M524.8,745.9V786h-5.2v-40.1H524.8z"/>
	<path class="st1" d="M545.7,746.4c2.6-0.5,6.4-0.8,9.9-0.8c5.5,0,9.1,1,11.6,3.3c2,1.8,3.2,4.5,3.2,7.6c0,5.3-3.3,8.8-7.6,10.2v0.2
		c3.1,1.1,4.9,3.9,5.9,8.1c1.3,5.6,2.3,9.5,3.1,11h-5.4c-0.7-1.1-1.5-4.6-2.7-9.6c-1.2-5.5-3.3-7.6-8-7.8h-4.9V786h-5.2V746.4z
		 M550.9,764.7h5.3c5.5,0,9-3,9-7.6c0-5.2-3.8-7.4-9.2-7.5c-2.5,0-4.3,0.2-5.1,0.5V764.7z"/>
	<path class="st1" d="M617.9,784.7c-1.9,1-5.7,1.9-10.6,1.9c-11.3,0-19.8-7.1-19.8-20.3c0-12.6,8.5-21.1,21-21.1
		c5,0,8.2,1.1,9.5,1.8l-1.2,4.2c-2-1-4.8-1.7-8.1-1.7c-9.4,0-15.7,6-15.7,16.5c0,9.8,5.7,16.1,15.4,16.1c3.2,0,6.4-0.7,8.5-1.7
		L617.9,784.7z"/>
	<path class="st1" d="M636.3,745.9h5.2v35.8h17.1v4.3h-22.3V745.9z"/>
	<path class="st1" d="M697,767.2h-15.6v14.5h17.4v4.3h-22.6v-40.1h21.7v4.3h-16.5v12.7H697V767.2z"/>
</g>
</svg>
