<svg xmlns="http://www.w3.org/2000/svg" viewBox="0 0 460 630"><defs><style>.cls-1{fill:#fff;}.cls-2{fill:#1d1d1b;}</style></defs><title>GoldenCircleCutout</title><g id="Layer_2" data-name="Layer 2"><g id="Layer_1-2" data-name="Layer 1"><path class="cls-1" d="M0,0V630H460V0H0ZM223.8,418.4a4,4,0,0,1-4.1,4C115.2,420.2,31.2,334.9,31.2,229.9s84-190.3,188.5-192.5a4.1,4.1,0,0,1,4.1,4Zm16.8,4a4,4,0,0,1-4-4V240.3a4,4,0,0,1,4-4H424.8a4,4,0,0,1,4,4.2C423.3,340.6,341.5,420.4,240.6,422.4ZM424.7,223.6H240.5a4,4,0,0,1-4-4V41.5a4,4,0,0,1,4-4c100.9,2.1,182.7,81.9,188.1,181.9A3.81,3.81,0,0,1,424.7,223.6Z"/><path class="cls-2" d="M128.7,518.4a38.11,38.11,0,0,1-12.3,2.2c-6.1,0-11.1-1.5-15-5.3-3.5-3.3-5.6-8.7-5.6-14.9.1-12,8.3-20.7,21.7-20.7a25.65,25.65,0,0,1,10,1.8l-1.2,4.2a20,20,0,0,0-8.9-1.7c-9.8,0-16.1,6.1-16.1,16.1,0,10.2,6.1,16.2,15.5,16.2a16.67,16.67,0,0,0,6.9-1.1v-12h-8.2V499h13.2Z"/><path class="cls-2" d="M182.8,499.7c0,13.8-8.4,21.1-18.6,21.1-10.6,0-18-8.2-18-20.4,0-12.7,7.9-21.1,18.6-21.1C175.7,479.4,182.8,487.8,182.8,499.7Zm-31.1.7c0,8.6,4.6,16.2,12.8,16.2s12.9-7.6,12.9-16.7c0-8-4.2-16.3-12.8-16.3S151.7,491.6,151.7,500.4Z"/><path class="cls-2" d="M201.4,480.1h5.2v35.8h17.1v4.3H201.4Z"/><path class="cls-2" d="M241.4,480.6a71.76,71.76,0,0,1,11-.8c7.4,0,12.7,1.7,16.2,5s5.7,7.9,5.7,14.4-2,11.9-5.8,15.6-9.9,5.8-17.7,5.8a82,82,0,0,1-9.4-.5Zm5.2,35.5a37.36,37.36,0,0,0,5.2.3c11.1,0,17.1-6.2,17.1-17,.1-9.5-5.3-15.5-16.2-15.5a30.15,30.15,0,0,0-6.1.5Z"/><path class="cls-2" d="M313.7,501.4H298.1v14.5h17.4v4.3H292.9V480.1h21.7v4.3H298.1v12.7h15.6v4.3Z"/><path class="cls-2" d="M334.2,520.2V480.1h5.7l12.9,20.3a109.43,109.43,0,0,1,7.2,13l.1-.1c-.5-5.4-.6-10.2-.6-16.5V480h4.9v40.1h-5.2l-12.7-20.4a121.12,121.12,0,0,1-7.5-13.4l-.2.1c.3,5.1.4,9.9.4,16.5V520h-5Z"/><path class="cls-2" d="M146.4,590.3c-1.9,1-5.7,1.9-10.6,1.9-11.3,0-19.8-7.1-19.8-20.3,0-12.6,8.5-21.1,21-21.1,5,0,8.2,1.1,9.5,1.8l-1.2,4.2a18.4,18.4,0,0,0-8.1-1.7c-9.4,0-15.7,6-15.7,16.5,0,9.8,5.7,16.1,15.4,16.1a21,21,0,0,0,8.5-1.7Z"/><path class="cls-2" d="M170,551.5v40.1h-5.2V551.5Z"/><path class="cls-2" d="M190.9,552a57.47,57.47,0,0,1,9.9-.8c5.5,0,9.1,1,11.6,3.3a10.08,10.08,0,0,1,3.2,7.6,10.41,10.41,0,0,1-7.6,10.2v.2c3.1,1.1,4.9,3.9,5.9,8.1,1.3,5.6,2.3,9.5,3.1,11h-5.4c-.7-1.1-1.5-4.6-2.7-9.6-1.2-5.5-3.3-7.6-8-7.8H196v17.4h-5.2V552Zm5.2,18.3h5.3c5.5,0,9-3,9-7.6,0-5.2-3.8-7.4-9.2-7.5a17.83,17.83,0,0,0-5.1.5Z"/><path class="cls-2" d="M263.1,590.3c-1.9,1-5.7,1.9-10.6,1.9-11.3,0-19.8-7.1-19.8-20.3,0-12.6,8.5-21.1,21-21.1,5,0,8.2,1.1,9.5,1.8l-1.2,4.2a18.4,18.4,0,0,0-8.1-1.7c-9.4,0-15.7,6-15.7,16.5,0,9.8,5.7,16.1,15.4,16.1a21,21,0,0,0,8.5-1.7Z"/><path class="cls-2" d="M281.5,551.5h5.2v35.8h17.1v4.3H281.5Z"/><path class="cls-2" d="M342.2,572.8H326.6v14.5H344v4.3H321.4V551.5h21.7v4.3H326.6v12.7h15.6Z"/></g></g></svg>