<svg xmlns="http://www.w3.org/2000/svg" viewBox="0 0 1133.86 1133.86"><defs><style>.cls-1{fill:#fff;}.cls-2{fill:#1d1d1b;}</style></defs><title>Asset 2</title><g id="Layer_2" data-name="Layer 2"><g id="Layer_1-2" data-name="Layer 1"><path class="cls-1" d="M0,0V1133.86H1133.86V0ZM475.07,1031.35c-10.83-2-21.69-4.42-32.29-7.14C222.76,967.73,69.1,769.43,69.1,542a496.73,496.73,0,0,1,74.34-261.84l26.62,16.5A465.4,465.4,0,0,0,100.41,542c0,213.15,144,399,350.16,451.9,9.93,2.55,20.09,4.8,30.23,6.7ZM954,855.07C883.62,942,785.11,1003.29,676.63,1027.69l-6.87-30.55c101.64-22.86,193.95-80.31,259.92-161.78A467.55,467.55,0,0,0,1033.45,542c0-257.24-209.28-466.52-466.52-466.52a466.32,466.32,0,0,0-233.26,62.41L318,110.77A497.68,497.68,0,0,1,566.93,44.15c274.51,0,497.84,223.33,497.84,497.83A499,499,0,0,1,954,855.07Z"/><path class="cls-2" d="M182.93,146.81c28.48-28.48,72.75-32.26,104.69-.33s26.5,76.55-2.3,105.35c-13,13-30.62,23-45.1,25l-18.27-18.27c15.15-1.31,30.62-6.25,45.27-20.9,20.57-20.57,21.39-48.4-1.32-71.11-22.22-22.22-50.21-22.22-70-2.47-7.57,7.57-12.51,15.48-15,23.22l19.26,19.26,17.45-17.45,14.82,14.82-36.71,36.71L152.15,197C155.44,189.11,163.5,166.23,182.93,146.81Z"/><path class="cls-2" d="M585.3,1089.71c-40.28,0-75-27.7-75-72.87S545,944,585.3,944c18.38,0,37,5.36,48.65,14.2V984a68,68,0,0,0-45.62-17.22c-27.7,0-48.19,18.63-48.19,50,0,31.2,20.49,50.06,48.19,50.06A67.88,67.88,0,0,0,634,1049.67v25.85C622.32,1084.36,603.69,1089.71,585.3,1089.71Z"/></g></g></svg>