<svg id="Layer_1" data-name="Layer 1" xmlns="http://www.w3.org/2000/svg" viewBox="0 0 400 400"><defs><style>.cls-1{fill:#eaeaea;}</style></defs><title>cut out</title><path class="cls-1" d="M0,0V400H400V0ZM193.8,388.47a4,4,0,0,1-4.05,4C85.29,390.32,1.28,305,1.28,200S85.29,9.68,189.75,7.52a4,4,0,0,1,4.05,4Zm16.78,4a4,4,0,0,1-4-4V210.35a4,4,0,0,1,4-4h184.2a4,4,0,0,1,4,4.18C393.3,310.63,311.51,390.4,210.59,392.48ZM394.72,193.63H210.51a4,4,0,0,1-4-4V11.52a4,4,0,0,1,4-4C311.51,9.6,393.3,89.37,398.71,189.45A4,4,0,0,1,394.72,193.63Z"/></svg>