<svg xmlns="http://www.w3.org/2000/svg" viewBox="0 0 163.1 68.53"><defs><style>.cls-1{fill:#fff;}</style></defs><title>Asset 1</title><g id="Layer_2" data-name="Layer 2"><g id="Layer_1-2" data-name="Layer 1"><path class="cls-1" d="M22.93,14.21c-.05.49-.16,1.12-.2,1.33a11.09,11.09,0,0,1-3.7,7,11,11,0,0,1-9.48,2.7C2.94,24.06-1,18.16.22,11.24S7.15,0,13.79,1.2a11,11,0,0,1,8,5.75l-2.5,1.39a10,10,0,0,0-1.62-2.19,8,8,0,0,0-4.33-2.27C8.52,3,4.16,6.42,3.22,11.74s2,10,6.74,10.8a8.54,8.54,0,0,0,7.28-2.23,8.32,8.32,0,0,0,2.27-4.12l-8.07-1.42.44-2.5Z"/><path class="cls-1" d="M54.58,6.69a12,12,0,0,1,1.26,8.72,11.78,11.78,0,0,1-5.52,8.31,11.51,11.51,0,0,1-7.9,1.48,11.78,11.78,0,0,1-8.21-5.93,12.15,12.15,0,0,1-1.1-8C34.34,4.38,40.16,0,46.73,1.19A11.59,11.59,0,0,1,54.58,6.69Zm-18.46,5c-1,5.39,1.9,9.94,6.7,10.79a8.44,8.44,0,0,0,6.68-1.69,10.1,10.1,0,0,0,3.35-6c.55-3.09.11-5.5-1.39-7.56a8.5,8.5,0,0,0-5.28-3.41C41.35,3,37.07,6.37,36.12,11.72Z"/><path class="cls-1" d="M77.2,23.11l-.47,2.64-11.09-2L69.73.61l2.92.52L69,21.67Z"/><path class="cls-1" d="M91.91.06l6.15,1.09c7,1.23,10.45,6.22,9.22,13.21-.69,3.93-2.55,6.94-5.29,8.64a11.78,11.78,0,0,1-8.54,1.25l-5.63-1Zm-.73,21.21,1,.18c3.93.69,5.67.57,7.57-.46,2.38-1.3,3.88-3.69,4.48-7.13,1-5.6-1.44-9.33-6.76-10.26L94.4,3Z"/><path class="cls-1" d="M122.15,11.29l9.15,1.61-.44,2.5L121.7,13.8l-1.4,7.93,9.15,1.61-.44,2.5-12.07-2.13L121,.52,133.1,2.65l-.44,2.5-9.15-1.61Z"/><path class="cls-1" d="M144,23.71,141,23.19,145.12,0l2.68.47,9.3,19.64,3.08-17.46,2.92.52L159,26.36l-2.57-.45L147.08,6Z"/><path class="cls-1" d="M27.55,65.35a10.38,10.38,0,0,1-9.18,2.43A10.48,10.48,0,0,1,11,63a13.31,13.31,0,0,1-1.58-9.13c1.23-7,6.82-11.2,13.21-10.07a11.52,11.52,0,0,1,5.53,2.59,12.3,12.3,0,0,1,2.29,2.88l-2.35,1.52c-1.85-2.73-3.41-3.86-5.88-4.3-4.73-.83-8.86,2.49-9.82,7.91s1.87,9.94,6.67,10.79a7.81,7.81,0,0,0,6.86-2.09Z"/><path class="cls-1" d="M42,67.4l-2.92-.52L43.21,43.7l2.92.52Z"/><path class="cls-1" d="M59.22,66.28l-2.92-.52,4.09-23.19,6.33,1.12c4.94.87,7.48,3.94,6.74,8.14a6.4,6.4,0,0,1-4.37,5.25,9.73,9.73,0,0,1-4.45.22l7.31,11.22-3.72-.66L60.94,56.54Zm5-11.2c3.51.62,5.71-.64,6.22-3.56s-1-4.76-4.15-5.32l-3.41-.6-1.58,9Z"/><path class="cls-1" d="M102.57,65.35A11.24,11.24,0,0,1,86,63a13.31,13.31,0,0,1-1.58-9.13c1.23-7,6.82-11.2,13.21-10.07a11.52,11.52,0,0,1,5.53,2.59,12.3,12.3,0,0,1,2.29,2.88l-2.35,1.52c-1.85-2.73-3.41-3.86-5.88-4.3-4.73-.83-8.86,2.49-9.82,7.91s1.87,9.94,6.67,10.79A7.81,7.81,0,0,0,101,63.06Z"/><path class="cls-1" d="M125.77,65.48l-.47,2.64-11.09-2L118.3,43l2.92.52L117.6,64Z"/><path class="cls-1" d="M142.46,53.66l9.15,1.61-.44,2.5L142,56.17l-1.4,7.93,9.15,1.61-.44,2.5-12.07-2.13,4.09-23.19L153.41,45l-.44,2.5-9.15-1.61Z"/></g></g></svg>