<?xml version="1.0" encoding="utf-8"?>
<!-- Generator: Adobe Illustrator 21.0.2, SVG Export Plug-In . SVG Version: 6.00 Build 0)  -->
<svg version="1.1" id="Layer_1" xmlns="http://www.w3.org/2000/svg" xmlns:xlink="http://www.w3.org/1999/xlink" x="0px" y="0px"
	 viewBox="0 0 1133.9 1133.9" style="enable-background:new 0 0 1133.9 1133.9;" xml:space="preserve">
<style type="text/css">
	.st0{fill:#FFFFFF;}
	.st1{fill:#1D1D1B;}
</style>
<ellipse transform="matrix(0.7141 -0.7 0.7 0.7141 -234.3081 558.4783)" class="st0" cx="566.6" cy="566.1" rx="52" ry="52"/>
<path class="st1" d="M563.9,606.7c-22.8,0-42.5-15.7-42.5-41.3c0-25.6,19.6-41.3,42.5-41.3c10.4,0,21,3,27.5,8v14.6
	c-6.3-5.5-14.9-9.8-25.8-9.8c-15.7,0-27.3,10.5-27.3,28.3c0,17.7,11.6,28.3,27.3,28.3c10.9,0,19.5-4.2,25.8-9.8v14.6
	C584.8,603.7,574.3,606.7,563.9,606.7z"/>
</svg>
