<?xml version="1.0" encoding="utf-8"?>
<!-- Generator: Adobe Illustrator 21.0.2, SVG Export Plug-In . SVG Version: 6.00 Build 0)  -->
<svg version="1.1" id="Layer_1" xmlns="http://www.w3.org/2000/svg" xmlns:xlink="http://www.w3.org/1999/xlink" x="0px" y="0px"
	 viewBox="0 0 1133.9 1133.9" style="enable-background:new 0 0 1133.9 1133.9;" xml:space="preserve">
<style type="text/css">
	.st0{fill:#FFFFFF;}
	.st1{fill:#1D1D1B;}
</style>
<ellipse transform="matrix(0.7141 -0.7 0.7 0.7141 -234.3081 558.4783)" class="st0" cx="566.6" cy="566.1" rx="52" ry="52"/>
<path class="st1" d="M563.9,606.7c-22.8-0.2-41.9-16.6-41.6-42.2c0.3-25.6,20.4-41.1,43.5-40.8c10.4,0.1,21.5,3.2,28,8.3l-0.1,14.6
	c-6.5-5.6-14.7-9.9-26.4-10c-16.5-0.2-28.1,10.5-28.2,28.7c-0.2,17.8,10.9,29.1,26.7,29.3c6.1,0.1,11.2-1.1,15.3-3.1l0.2-15.4
	l-14-0.1l0.1-11.9l29.4,0.3l-0.3,34.9C591.9,601,579.4,606.8,563.9,606.7z"/>
</svg>
